<svg version="1.1" id="Layer_1" xmlns="http://www.w3.org/2000/svg" xmlns:xlink="http://www.w3.org/1999/xlink" x="0px" y="0px"
	 width="100%" viewBox="0 0 7854 2619" enable-background="new 0 0 7854 2619" xml:space="preserve">
<path fill="#4169E1" opacity="1.000000" stroke="none"
	d="
M12.000000,4.000000
	C2627.563477,4.000000 5243.126953,4.000000 7860.000000,4.000000
	C7860.000000,597.463623 7860.000000,1190.928223 7858.578125,1786.710693
	C7852.038086,1790.490234 7846.947754,1792.061401 7841.796875,1793.397339
	C7743.155273,1818.981323 7644.496094,1844.496704 7545.862305,1870.110840
	C7428.524414,1900.582031 7311.201172,1931.113403 7193.881836,1961.655151
	C7041.756348,2001.257812 6889.650391,2040.937134 6737.516113,2080.506104
	C6609.875977,2113.704590 6482.208008,2146.798340 6354.549805,2179.927979
	C6266.219238,2202.851074 6177.862305,2225.672363 6089.561523,2248.708008
	C6050.251465,2258.962891 6011.050781,2269.634033 5970.391602,2280.057617
	C5962.955566,2281.802490 5956.928223,2283.605713 5949.333984,2285.831055
	C5942.561523,2287.392334 5937.310547,2288.355957 5932.158203,2289.696777
	C5804.545898,2322.897217 5676.931152,2356.089600 5549.362305,2389.454102
	C5538.260254,2392.357666 5527.220703,2393.740234 5515.783691,2392.918945
	C5491.865234,2391.200439 5467.929199,2389.727295 5442.953125,2387.607910
	C5437.264648,2387.271729 5432.623535,2387.481445 5426.296387,2387.539795
	C5412.406738,2386.287598 5400.203125,2385.186768 5387.083008,2383.583008
	C5382.775391,2383.349854 5379.384766,2383.619873 5374.285156,2383.754150
	C5360.382812,2382.527100 5348.189453,2381.436035 5334.960449,2379.774658
	C5329.280273,2379.418701 5324.634766,2379.633301 5318.283203,2379.687012
	C5304.374023,2378.483398 5292.171387,2377.440674 5278.916992,2375.888916
	C5273.239746,2375.560791 5268.614746,2375.741699 5262.261719,2375.690918
	C5228.360352,2373.009277 5196.186523,2370.559082 5163.336914,2367.544189
	C5160.450684,2367.171143 5158.239258,2367.362793 5154.263184,2367.530273
	C5147.860840,2367.364014 5143.209473,2367.402588 5138.587891,2367.051758
	C5091.056152,2363.442871 5043.528809,2359.770264 4995.086914,2355.602051
	C4990.780762,2355.369385 4987.388672,2355.650635 4982.287109,2355.800781
	C4968.383301,2354.574463 4956.188965,2353.479248 4942.962402,2351.805420
	C4937.284668,2351.447998 4932.638672,2351.668945 4926.281250,2351.734863
	C4893.712891,2349.100586 4862.856934,2346.621826 4831.089844,2343.619629
	C4826.786133,2343.384033 4823.392090,2343.671631 4818.289062,2343.832031
	C4804.386719,2342.589844 4792.193848,2341.474854 4778.970703,2339.770996
	C4773.291504,2339.411865 4768.642578,2339.641357 4762.279785,2339.733887
	C4733.787598,2337.658936 4707.009766,2335.720703 4679.488770,2333.251953
	C4677.541992,2332.243408 4676.349609,2332.270508 4673.375488,2332.778809
	C4657.041992,2332.181152 4642.501465,2331.607666 4626.487305,2330.366699
	C4585.190918,2326.674072 4545.379395,2323.499268 4505.541992,2320.675781
	C4478.301270,2318.745117 4451.010254,2317.511963 4423.767578,2315.601807
	C4366.619141,2311.594727 4309.490234,2307.310547 4252.347656,2303.216553
	C4230.420898,2301.645264 4208.465332,2300.453857 4186.546387,2298.786133
	C4143.400391,2295.503662 4100.283203,2291.845215 4057.130615,2288.659912
	C4028.573975,2286.552002 3999.972412,2285.058105 3971.398438,2283.173096
	C3953.450928,2281.989014 3935.513184,2280.646240 3917.578613,2279.276123
	C3870.420166,2275.672852 3823.269287,2271.968262 3776.107910,2268.404297
	C3757.510254,2266.998779 3738.895996,2265.805420 3720.283447,2264.609863
	C3691.041504,2262.731934 3661.789307,2261.013428 3632.551758,2259.073730
	C3613.950439,2257.840088 3595.366943,2256.337158 3576.776855,2254.938965
	C3528.967285,2251.343750 3481.160889,2247.709473 3433.348633,2244.150146
	C3406.116211,2242.122803 3378.874268,2240.225342 3351.638184,2238.245361
	C3323.731201,2236.217041 3295.834229,2234.039551 3267.918457,2232.142090
	C3222.067627,2229.025635 3176.187256,2226.329590 3130.352783,2222.993652
	C3087.196777,2219.852051 3044.100586,2215.889404 3000.948486,2212.687500
	C2929.878662,2207.414795 2858.791260,2202.381592 2787.699951,2197.405762
	C2737.884521,2193.918945 2688.050293,2190.697021 2638.224609,2187.353271
	C2617.627686,2185.970947 2597.014648,2184.783203 2576.437744,2183.146973
	C2533.998047,2179.771484 2491.585205,2176.059082 2449.146729,2172.667480
	C2414.658447,2169.911133 2380.148438,2167.419189 2345.648193,2164.811768
	C2309.823242,2162.104004 2273.998779,2159.395020 2238.173584,2156.693115
	C2203.010498,2154.041016 2167.847412,2151.392822 2132.683838,2148.750977
	C2096.847168,2146.058105 2061.020996,2143.216309 2025.170288,2140.726807
	C1980.676880,2137.637451 1936.162720,2134.850586 1891.658447,2131.916992
	C1869.065918,2130.427734 1846.458252,2129.123291 1823.889160,2127.336182
	C1798.669678,2125.338623 1773.507812,2122.601074 1748.282227,2120.696289
	C1698.498779,2116.936768 1648.688110,2113.539307 1598.890015,2109.973633
	C1567.692383,2107.739990 1536.500610,2105.421875 1505.299683,2103.235107
	C1480.714355,2101.511963 1456.105713,2100.105713 1431.530762,2098.250244
	C1388.367188,2094.991455 1345.226440,2091.432617 1302.067139,2088.117676
	C1251.636963,2084.244629 1201.197632,2080.492920 1150.761597,2076.697021
	C1114.926392,2073.999756 1079.092896,2071.278076 1043.253540,2068.636230
	C992.152344,2064.868896 941.040466,2061.243652 889.944336,2057.408691
	C851.463440,2054.520752 813.017700,2051.146729 774.523193,2048.462402
	C745.318176,2046.425537 716.060486,2045.145020 686.827820,2043.500488
	C681.515320,2043.201538 676.195068,2042.918091 670.904663,2042.372681
	C653.051514,2040.532349 635.240601,2038.197998 617.356628,2036.762451
	C595.479858,2035.006470 573.532593,2034.146240 551.638977,2032.576538
	C517.129150,2030.102417 482.648315,2027.221680 448.136688,2024.774170
	C420.248322,2022.796509 392.327301,2021.284058 364.431000,2019.412231
	C345.189667,2018.121094 325.964600,2016.584717 306.734375,2015.130249
	C260.279175,2011.616943 213.820496,2008.147949 167.372528,2004.541382
	C140.849274,2002.481934 114.373405,1999.685303 87.822563,1998.145142
	C62.610012,1996.682495 37.413979,1993.496582 11.316948,1995.242188
	C9.573300,1993.970459 8.760750,1993.063599 8.673477,1990.423828
	C9.802011,1976.892944 10.886465,1964.937500 10.887997,1952.981689
	C10.969859,1313.960449 10.955393,674.939148 11.003661,35.917923
	C11.004465,25.278589 11.653473,14.639306 12.000000,4.000000
z"/>
<!--<path fill="#FFFFFF" opacity="1.000000" stroke="none" -->
<!--	d="-->
<!--M4627.960938,2331.034180 -->
<!--	C4642.501465,2331.607666 4657.041992,2332.181152 4674.102051,2333.379395 -->
<!--	C4676.621582,2334.004395 4678.458984,2334.417480 4678.458984,2334.417480 -->
<!--	C4678.458984,2334.417480 4680.231445,2333.782471 4680.231445,2333.782227 -->
<!--	C4707.009766,2335.720703 4733.787598,2337.658936 4763.321289,2340.294434 -->
<!--	C4770.718262,2340.781250 4775.359863,2340.570557 4780.001465,2340.359863 -->
<!--	C4792.193848,2341.474854 4804.386719,2342.589844 4819.202148,2344.348389 -->
<!--	C4825.216797,2344.708984 4828.608398,2344.426025 4832.000488,2344.143066 -->
<!--	C4862.856934,2346.621826 4893.712891,2349.100586 4927.316895,2352.313477 -->
<!--	C4934.707520,2352.826416 4939.351074,2352.605225 4943.994141,2352.383789 -->
<!--	C4956.188965,2353.479248 4968.383301,2354.574463 4983.198242,2356.324219 -->
<!--	C4989.211914,2356.691162 4992.606445,2356.403564 4996.000488,2356.116211 -->
<!--	C5043.528809,2359.770264 5091.056152,2363.442871 5138.587891,2367.051758 -->
<!--	C5143.209473,2367.402588 5147.860840,2367.364014 5154.958008,2368.017578 -->
<!--	C5159.615723,2368.389160 5161.814453,2368.249023 5164.012695,2368.108887 -->
<!--	C5196.186523,2370.559082 5228.360352,2373.009277 5263.278320,2376.342773 -->
<!--	C5270.790039,2378.939941 5275.452637,2378.896973 5279.969238,2376.397949 -->
<!--	C5292.171387,2377.440674 5304.374023,2378.483398 5319.314941,2380.276367 -->
<!--	C5326.701172,2380.799316 5331.348145,2380.572266 5335.995605,2380.345215 -->
<!--	C5348.189453,2381.436035 5360.382812,2382.527100 5375.192383,2384.289062 -->
<!--	C5381.205078,2384.668701 5384.602539,2384.377441 5388.000000,2384.085938 -->
<!--	C5400.203125,2385.186768 5412.406738,2386.287598 5427.328125,2388.133301 -->
<!--	C5434.698242,2388.636475 5439.349121,2388.395020 5444.000488,2388.153564 -->
<!--	C5467.929199,2389.727295 5491.865234,2391.200439 5515.783691,2392.918945 -->
<!--	C5527.220703,2393.740234 5538.260254,2392.357666 5549.362305,2389.454102 -->
<!--	C5676.931152,2356.089600 5804.545898,2322.897217 5932.158203,2289.696777 -->
<!--	C5937.310547,2288.355957 5942.561523,2287.392334 5950.812012,2286.235596 -->
<!--	C5959.737793,2285.387451 5965.618652,2284.556885 5973.392578,2283.906250 -->
<!--	C6013.187988,2282.336426 6051.110352,2280.920898 6088.986816,2278.728516 -->
<!--	C6118.212402,2277.036865 6147.364258,2274.107178 6176.580566,2272.208740 -->
<!--	C6207.137207,2270.223389 6237.730469,2268.816406 6268.307617,2267.143799 -->
<!--	C6270.302734,2267.034912 6272.290527,2266.807617 6274.283203,2266.656494 -->
<!--	C6302.144043,2264.544189 6329.987793,2262.174561 6357.869629,2260.395996 -->
<!--	C6388.420898,2258.447021 6419.006348,2257.046143 6449.576660,2255.396973 -->
<!--	C6450.906250,2255.325439 6452.229004,2255.145264 6453.556641,2255.036865 -->
<!--	C6480.736328,2252.820557 6507.900391,2250.397705 6535.099609,2248.457031 -->
<!--	C6558.333008,2246.799561 6581.613281,2245.811523 6604.859863,2244.321533 -->
<!--	C6644.712891,2241.767090 6684.553711,2239.017578 6724.403809,2236.414551 -->
<!--	C6765.581055,2233.724609 6806.765625,2231.147949 6847.942383,2228.454590 -->
<!--	C6887.774414,2225.849121 6927.600098,2223.150879 6967.429688,2220.507080 -->
<!--	C7007.924316,2217.819336 7048.388184,2214.371094 7088.924316,2212.679688 -->
<!--	C7132.840820,2210.848145 7176.656250,2208.045898 7220.461426,2204.523682 -->
<!--	C7261.586914,2201.216797 7302.801758,2199.027100 7343.976562,2196.333496 -->
<!--	C7383.817383,2193.727051 7423.658691,2191.119629 7463.497559,2188.485107 -->
<!--	C7503.327637,2185.851562 7543.148926,2183.079102 7582.986328,2180.559570 -->
<!--	C7628.811035,2177.660889 7674.644043,2174.882080 7720.483887,2172.224609 -->
<!--	C7752.385742,2170.375244 7784.310547,2168.900146 7816.215332,2167.093506 -->
<!--	C7830.821777,2166.266357 7845.405762,2165.043457 7860.000000,2164.000000 -->
<!--	C7860.000000,2317.302490 7860.000000,2470.604736 7860.000000,2623.839111 -->
<!--	C5241.333496,2623.839111 2622.666748,2623.839111 4.000000,2623.839111 -->
<!--	C4.000000,2511.701904 4.000000,2399.725586 5.338123,2285.888184 -->
<!--	C8.460072,2284.006104 10.243896,2283.984863 13.552263,2284.367432 -->
<!--	C50.363617,2291.666992 85.632919,2298.653809 120.940613,2305.440674 -->
<!--	C217.732285,2324.045898 314.545349,2342.539307 411.339996,2361.128662 -->
<!--	C515.982117,2381.225098 620.608398,2401.404053 725.250305,2421.501709 -->
<!--	C822.041748,2440.091309 918.846619,2458.611084 1015.641846,2477.180908 -->
<!--	C1120.939941,2497.382080 1226.239014,2517.577637 1331.527466,2537.828369 -->
<!--	C1411.308716,2553.173096 1491.089478,2568.520508 1570.839966,2584.023926 -->
<!--	C1612.675293,2592.156494 1654.548462,2600.148926 1696.192383,2609.183350 -->
<!--	C1712.171875,2612.650146 1727.800049,2612.966553 1743.759521,2610.949463 -->
<!--	C1751.667847,2609.950439 1759.578003,2608.827148 1767.523193,2608.280762 -->
<!--	C1794.089722,2606.454346 1820.683105,2605.013916 1847.246216,2603.141846 -->
<!--	C1880.442871,2600.802246 1913.615601,2598.125488 1946.806519,2595.700684 -->
<!--	C1968.715088,2594.100342 1990.656494,2592.922852 2012.548096,2591.127686 -->
<!--	C2036.412598,2589.170898 2060.211426,2586.390869 2084.084961,2584.572998 -->
<!--	C2110.627197,2582.552246 2137.221191,2581.216797 2163.791992,2579.567383 -->
<!--	C2166.450684,2579.402344 2169.102539,2579.132568 2171.757324,2578.906494 -->
<!--	C2197.603516,2576.706299 2223.446045,2574.463623 2249.296631,2572.316650 -->
<!--	C2272.512207,2570.388428 2295.768066,2568.885010 2318.949707,2566.617676 -->
<!--	C2351.405762,2563.443359 2383.787109,2559.506104 2416.241943,2556.318359 -->
<!--	C2449.348877,2553.065918 2482.510986,2550.376465 2515.639404,2547.335938 -->
<!--	C2530.215332,2545.998291 2544.768066,2544.407715 2559.330078,2542.919434 -->
<!--	C2594.407959,2539.334229 2629.483887,2535.732666 2664.562500,2532.154053 -->
<!--	C2698.330078,2528.708984 2732.094238,2525.229492 2765.870605,2521.872803 -->
<!--	C2785.738770,2519.898438 2805.622803,2518.082031 2825.508057,2516.288818 -->
<!--	C2846.054932,2514.435547 2866.625244,2512.838135 2887.160400,2510.869629 -->
<!--	C2910.335938,2508.647705 2933.473633,2506.027344 2956.647217,2503.784668 -->
<!--	C2976.516113,2501.861572 2996.428467,2500.385986 3016.292480,2498.419434 -->
<!--	C3035.496826,2496.518311 3054.645508,2494.052490 3073.851807,2492.174316 -->
<!--	C3106.975098,2488.935791 3140.126709,2485.987061 3173.261230,2482.863281 -->
<!--	C3187.838867,2481.489258 3202.408691,2480.031738 3216.973389,2478.527100 -->
<!--	C3237.486084,2476.407715 3257.979980,2474.099854 3278.501953,2472.076416 -->
<!--	C3297.043945,2470.248047 3315.618408,2468.749023 3334.169189,2467.006348 -->
<!--	C3359.338379,2464.641846 3384.499268,2462.190186 3409.662842,2459.764893 -->
<!--	C3427.554199,2458.040527 3445.452881,2456.387695 3463.332031,2454.544434 -->
<!--	C3495.771484,2451.200684 3528.180908,2447.559814 3560.635742,2444.375000 -->
<!--	C3593.747070,2441.125977 3626.913330,2438.440430 3660.026611,2435.209473 -->
<!--	C3695.780518,2431.720215 3731.486816,2427.739502 3767.240234,2424.243164 -->
<!--	C3800.361816,2421.004395 3833.530518,2418.249023 3866.656250,2415.051025 -->
<!--	C3905.076172,2411.341553 3943.471680,2407.380859 3981.877930,2403.530518 -->
<!--	C3997.105957,2402.003906 4012.333008,2400.469482 4027.562744,2398.958740 -->
<!--	C4064.635498,2395.280762 4101.706543,2391.586670 4138.784180,2387.956787 -->
<!--	C4157.996582,2386.075439 4177.231445,2384.427002 4196.436523,2382.477539 -->
<!--	C4228.882324,2379.183594 4261.295898,2375.573242 4293.752441,2372.395264 -->
<!--	C4326.863281,2369.153320 4360.017090,2366.344482 4393.138184,2363.200439 -->
<!--	C4408.369629,2361.754639 4423.561035,2359.890869 4438.783691,2358.343994 -->
<!--	C4459.963379,2356.191406 4481.151367,2354.106689 4502.344727,2352.088867 -->
<!--	C4523.548340,2350.069824 4544.779297,2348.324951 4565.967773,2346.163330 -->
<!--	C4581.192871,2344.610107 4596.357910,2342.479004 4611.570312,2340.786377 -->
<!--	C4618.602539,2340.003662 4624.446777,2337.564697 4627.960938,2331.034180 -->
<!--z"/>-->
<path fill="#DFF2FF" opacity="1.000000" stroke="none"
	d="
M7860.000000,2162.125488
	C7845.405762,2165.043457 7830.821777,2166.266357 7816.215332,2167.093506
	C7784.310547,2168.900146 7752.385742,2170.375244 7720.483887,2172.224609
	C7674.644043,2174.882080 7628.811035,2177.660889 7582.986328,2180.559570
	C7543.148926,2183.079102 7503.327637,2185.851562 7463.497559,2188.485107
	C7423.658691,2191.119629 7383.817383,2193.727051 7343.976562,2196.333496
	C7302.801758,2199.027100 7261.586914,2201.216797 7220.461426,2204.523682
	C7176.656250,2208.045898 7132.840820,2210.848145 7088.924316,2212.679688
	C7048.388184,2214.371094 7007.924316,2217.819336 6967.429688,2220.507080
	C6927.600098,2223.150879 6887.774414,2225.849121 6847.942383,2228.454590
	C6806.765625,2231.147949 6765.581055,2233.724609 6724.403809,2236.414551
	C6684.553711,2239.017578 6644.712891,2241.767090 6604.859863,2244.321533
	C6581.613281,2245.811523 6558.333008,2246.799561 6535.099609,2248.457031
	C6507.900391,2250.397705 6480.736328,2252.820557 6453.556641,2255.036865
	C6452.229004,2255.145264 6450.906250,2255.325439 6449.576660,2255.396973
	C6419.006348,2257.046143 6388.420898,2258.447021 6357.869629,2260.395996
	C6329.987793,2262.174561 6302.144043,2264.544189 6274.283203,2266.656494
	C6272.290527,2266.807617 6270.302734,2267.034912 6268.307617,2267.143799
	C6237.730469,2268.816406 6207.137207,2270.223389 6176.580566,2272.208740
	C6147.364258,2274.107178 6118.212402,2277.036865 6088.986816,2278.728516
	C6051.110352,2280.920898 6013.187988,2282.336426 5973.477539,2283.004883
	C5971.668945,2281.923096 5971.800293,2280.116455 5971.800293,2280.116455
	C6011.050781,2269.634033 6050.251465,2258.962891 6089.561523,2248.708008
	C6177.862305,2225.672363 6266.219238,2202.851074 6354.549805,2179.927979
	C6482.208008,2146.798340 6609.875977,2113.704590 6737.516113,2080.506104
	C6889.650391,2040.937134 7041.756348,2001.257812 7193.881836,1961.655151
	C7311.201172,1931.113403 7428.524414,1900.582031 7545.862305,1870.110840
	C7644.496094,1844.496704 7743.155273,1818.981323 7841.796875,1793.397339
	C7846.947754,1792.061401 7852.038086,1790.490234 7858.578125,1788.514160
	C7860.000000,1912.083618 7860.000000,2036.167114 7860.000000,2162.125488
z"/>
<path fill="#F9C9A0" opacity="1.000000" stroke="none"
	d="
M10.000000,4.000000
	C11.653473,14.639306 11.004465,25.278589 11.003661,35.917923
	C10.955393,674.939148 10.969859,1313.960449 10.887997,1952.981689
	C10.886465,1964.937500 9.802011,1976.892944 7.642279,1990.471924
	C5.374487,1992.063477 4.687243,1992.031738 4.000000,1992.000000
	C4.000000,1329.333374 4.000000,666.666687 4.002107,4.000000
	C5.336142,4.000000 6.668071,4.000000 10.000000,4.000000
z"/>
<path fill="#FCF5CB" opacity="1.000000" stroke="none"
	d="
M4.000000,1993.874634
	C4.687243,1992.031738 5.374487,1992.063477 7.092929,1992.047119
	C8.760750,1993.063599 9.573300,1993.970459 11.273391,1997.134277
	C11.999242,2094.353760 12.013482,2189.158691 12.027721,2283.963623
	C10.243896,2283.984863 8.460072,2284.006104 5.338123,2284.013672
	C4.000000,2187.916504 4.000000,2091.832764 4.000000,1993.874634
z"/>
<path fill="#DFF2FF" opacity="1.000000" stroke="none"
	d="
M13.552263,2284.367432
	C12.013482,2189.158691 11.999242,2094.353760 12.028559,1997.656738
	C37.413979,1993.496582 62.610012,1996.682495 87.822563,1998.145142
	C114.373405,1999.685303 140.849274,2002.481934 167.372528,2004.541382
	C213.820496,2008.147949 260.279175,2011.616943 306.734375,2015.130249
	C325.964600,2016.584717 345.189667,2018.121094 364.431000,2019.412231
	C392.327301,2021.284058 420.248322,2022.796509 448.136688,2024.774170
	C482.648315,2027.221680 517.129150,2030.102417 551.638977,2032.576538
	C573.532593,2034.146240 595.479858,2035.006470 617.356628,2036.762451
	C635.240601,2038.197998 653.051514,2040.532349 670.904663,2042.372681
	C676.195068,2042.918091 681.515320,2043.201538 686.827820,2043.500488
	C716.060486,2045.145020 745.318176,2046.425537 774.523193,2048.462402
	C813.017700,2051.146729 851.463440,2054.520752 889.944336,2057.408691
	C941.040466,2061.243652 992.152344,2064.868896 1043.253540,2068.636230
	C1079.092896,2071.278076 1114.926392,2073.999756 1150.761597,2076.697021
	C1201.197632,2080.492920 1251.636963,2084.244629 1302.067139,2088.117676
	C1345.226440,2091.432617 1388.367188,2094.991455 1431.530762,2098.250244
	C1456.105713,2100.105713 1480.714355,2101.511963 1505.299683,2103.235107
	C1536.500610,2105.421875 1567.692383,2107.739990 1598.890015,2109.973633
	C1648.688110,2113.539307 1698.498779,2116.936768 1748.282227,2120.696289
	C1773.507812,2122.601074 1798.669678,2125.338623 1823.889160,2127.336182
	C1846.458252,2129.123291 1869.065918,2130.427734 1891.658447,2131.916992
	C1936.162720,2134.850586 1980.676880,2137.637451 2025.170288,2140.726807
	C2061.020996,2143.216309 2096.847168,2146.058105 2132.683838,2148.750977
	C2167.847412,2151.392822 2203.010498,2154.041016 2238.173584,2156.693115
	C2273.998779,2159.395020 2309.823242,2162.104004 2345.648193,2164.811768
	C2380.148438,2167.419189 2414.658447,2169.911133 2449.146729,2172.667480
	C2491.585205,2176.059082 2533.998047,2179.771484 2576.437744,2183.146973
	C2597.014648,2184.783203 2617.627686,2185.970947 2638.224609,2187.353271
	C2688.050293,2190.697021 2737.884521,2193.918945 2787.699951,2197.405762
	C2858.791260,2202.381592 2929.878662,2207.414795 3000.948486,2212.687500
	C3044.100586,2215.889404 3087.196777,2219.852051 3130.352783,2222.993652
	C3176.187256,2226.329590 3222.067627,2229.025635 3267.918457,2232.142090
	C3295.834229,2234.039551 3323.731201,2236.217041 3351.638184,2238.245361
	C3378.874268,2240.225342 3406.116211,2242.122803 3433.348633,2244.150146
	C3481.160889,2247.709473 3528.967285,2251.343750 3576.776855,2254.938965
	C3595.366943,2256.337158 3613.950439,2257.840088 3632.551758,2259.073730
	C3661.789307,2261.013428 3691.041504,2262.731934 3720.283447,2264.609863
	C3738.895996,2265.805420 3757.510254,2266.998779 3776.107910,2268.404297
	C3823.269287,2271.968262 3870.420166,2275.672852 3917.578613,2279.276123
	C3935.513184,2280.646240 3953.450928,2281.989014 3971.398438,2283.173096
	C3999.972412,2285.058105 4028.573975,2286.552002 4057.130615,2288.659912
	C4100.283203,2291.845215 4143.400391,2295.503662 4186.546387,2298.786133
	C4208.465332,2300.453857 4230.420898,2301.645264 4252.347656,2303.216553
	C4309.490234,2307.310547 4366.619141,2311.594727 4423.767578,2315.601807
	C4451.010254,2317.511963 4478.301270,2318.745117 4505.541992,2320.675781
	C4545.379395,2323.499268 4585.190918,2326.674072 4626.487305,2330.366699
	C4624.446777,2337.564697 4618.602539,2340.003662 4611.570312,2340.786377
	C4596.357910,2342.479004 4581.192871,2344.610107 4565.967773,2346.163330
	C4544.779297,2348.324951 4523.548340,2350.069824 4502.344727,2352.088867
	C4481.151367,2354.106689 4459.963379,2356.191406 4438.783691,2358.343994
	C4423.561035,2359.890869 4408.369629,2361.754639 4393.138184,2363.200439
	C4360.017090,2366.344482 4326.863281,2369.153320 4293.752441,2372.395264
	C4261.295898,2375.573242 4228.882324,2379.183594 4196.436523,2382.477539
	C4177.231445,2384.427002 4157.996582,2386.075439 4138.784180,2387.956787
	C4101.706543,2391.586670 4064.635498,2395.280762 4027.562744,2398.958740
	C4012.333008,2400.469482 3997.105957,2402.003906 3981.877930,2403.530518
	C3943.471680,2407.380859 3905.076172,2411.341553 3866.656250,2415.051025
	C3833.530518,2418.249023 3800.361816,2421.004395 3767.240234,2424.243164
	C3731.486816,2427.739502 3695.780518,2431.720215 3660.026611,2435.209473
	C3626.913330,2438.440430 3593.747070,2441.125977 3560.635742,2444.375000
	C3528.180908,2447.559814 3495.771484,2451.200684 3463.332031,2454.544434
	C3445.452881,2456.387695 3427.554199,2458.040527 3409.662842,2459.764893
	C3384.499268,2462.190186 3359.338379,2464.641846 3334.169189,2467.006348
	C3315.618408,2468.749023 3297.043945,2470.248047 3278.501953,2472.076416
	C3257.979980,2474.099854 3237.486084,2476.407715 3216.973389,2478.527100
	C3202.408691,2480.031738 3187.838867,2481.489258 3173.261230,2482.863281
	C3140.126709,2485.987061 3106.975098,2488.935791 3073.851807,2492.174316
	C3054.645508,2494.052490 3035.496826,2496.518311 3016.292480,2498.419434
	C2996.428467,2500.385986 2976.516113,2501.861572 2956.647217,2503.784668
	C2933.473633,2506.027344 2910.335938,2508.647705 2887.160400,2510.869629
	C2866.625244,2512.838135 2846.054932,2514.435547 2825.508057,2516.288818
	C2805.622803,2518.082031 2785.738770,2519.898438 2765.870605,2521.872803
	C2732.094238,2525.229492 2698.330078,2528.708984 2664.562500,2532.154053
	C2629.483887,2535.732666 2594.407959,2539.334229 2559.330078,2542.919434
	C2544.768066,2544.407715 2530.215332,2545.998291 2515.639404,2547.335938
	C2482.510986,2550.376465 2449.348877,2553.065918 2416.241943,2556.318359
	C2383.787109,2559.506104 2351.405762,2563.443359 2318.949707,2566.617676
	C2295.768066,2568.885010 2272.512207,2570.388428 2249.296631,2572.316650
	C2223.446045,2574.463623 2197.603516,2576.706299 2171.757324,2578.906494
	C2169.102539,2579.132568 2166.450684,2579.402344 2163.791992,2579.567383
	C2137.221191,2581.216797 2110.627197,2582.552246 2084.084961,2584.572998
	C2060.211426,2586.390869 2036.412598,2589.170898 2012.548096,2591.127686
	C1990.656494,2592.922852 1968.715088,2594.100342 1946.806519,2595.700684
	C1913.615601,2598.125488 1880.442871,2600.802246 1847.246216,2603.141846
	C1820.683105,2605.013916 1794.089722,2606.454346 1767.523193,2608.280762
	C1759.578003,2608.827148 1751.667847,2609.950439 1743.759521,2610.949463
	C1727.800049,2612.966553 1712.171875,2612.650146 1696.192383,2609.183350
	C1654.548462,2600.148926 1612.675293,2592.156494 1570.839966,2584.023926
	C1491.089478,2568.520508 1411.308716,2553.173096 1331.527466,2537.828369
	C1226.239014,2517.577637 1120.939941,2497.382080 1015.641846,2477.180908
	C918.846619,2458.611084 822.041748,2440.091309 725.250305,2421.501709
	C620.608398,2401.404053 515.982117,2381.225098 411.339996,2361.128662
	C314.545349,2342.539307 217.732285,2324.045898 120.940613,2305.440674
	C85.632919,2298.653809 50.363617,2291.666992 13.552263,2284.367432
z"/>
<path fill="#F6C395" opacity="1.000000" stroke="none"
	d="
M5970.391602,2280.057617
	C5971.800293,2280.116455 5971.668945,2281.923096 5971.583984,2282.824707
	C5965.618652,2284.556885 5959.737793,2285.387451 5952.378906,2285.813477
	C5956.928223,2283.605713 5962.955566,2281.802490 5970.391602,2280.057617
z"/>
<path fill="#F6C69B" opacity="1.000000" stroke="none"
	d="
M5442.953125,2387.607910
	C5439.349121,2388.395020 5434.698242,2388.636475 5429.014648,2388.284668
	C5432.623535,2387.481445 5437.264648,2387.271729 5442.953125,2387.607910
z"/>
<path fill="#F9C9A0" opacity="1.000000" stroke="none"
	d="
M5334.960449,2379.774658
	C5331.348145,2380.572266 5326.701172,2380.799316 5321.021484,2380.437256
	C5324.634766,2379.633301 5329.280273,2379.418701 5334.960449,2379.774658
z"/>
<path fill="#F8D4B3" opacity="1.000000" stroke="none"
	d="
M5278.916992,2375.888916
	C5275.452637,2378.896973 5270.790039,2378.939941 5265.006348,2376.574463
	C5268.614746,2375.741699 5273.239746,2375.560791 5278.916992,2375.888916
z"/>
<path fill="#F9C9A0" opacity="1.000000" stroke="none"
	d="
M4942.962402,2351.805420
	C4939.351074,2352.605225 4934.707520,2352.826416 4929.028320,2352.468750
	C4932.638672,2351.668945 4937.284668,2351.447998 4942.962402,2351.805420
z"/>
<path fill="#F6C69B" opacity="1.000000" stroke="none"
	d="
M4778.970703,2339.770996
	C4775.359863,2340.570557 4770.718262,2340.781250 4765.035156,2340.431396
	C4768.642578,2339.641357 4773.291504,2339.411865 4778.970703,2339.770996
z"/>
<path fill="#F6C69B" opacity="1.000000" stroke="none"
	d="
M4995.086914,2355.602051
	C4992.606445,2356.403564 4989.211914,2356.691162 4984.907227,2356.455322
	C4987.388672,2355.650635 4990.780762,2355.369385 4995.086914,2355.602051
z"/>
<path fill="#F6C69B" opacity="1.000000" stroke="none"
	d="
M4831.089844,2343.619873
	C4828.608398,2344.426025 4825.216797,2344.708984 4820.911621,2344.475586
	C4823.392090,2343.671631 4826.786133,2343.384033 4831.089844,2343.619873
z"/>
<path fill="#F6C69B" opacity="1.000000" stroke="none"
	d="
M5387.083008,2383.583008
	C5384.602539,2384.377441 5381.205078,2384.668701 5376.900879,2384.425049
	C5379.384766,2383.619873 5382.775391,2383.349854 5387.083008,2383.583008
z"/>
<path fill="#F5B378" opacity="1.000000" stroke="none"
	d="
M5163.336914,2367.544189
	C5161.814453,2368.249023 5159.615723,2368.389160 5156.722656,2368.041992
	C5158.239258,2367.362793 5160.450684,2367.171143 5163.336914,2367.544189
z"/>
<path fill="#F5B378" opacity="1.000000" stroke="none"
	d="
M4679.488770,2333.251953
	C4680.231445,2333.782471 4678.458984,2334.417480 4678.458984,2334.417480
	C4678.458984,2334.417480 4676.621582,2334.004395 4675.895020,2333.403809
	C4676.349609,2332.270508 4677.541992,2332.243408 4679.488770,2333.251953
z"/>
</svg>
