<svg version="1.1" id="Layer_1" xmlns="http://www.w3.org/2000/svg" xmlns:xlink="http://www.w3.org/1999/xlink" x="0px" y="0px"
	 width="100%" viewBox="0 0 7854 1305" enable-background="new 0 0 7854 1305" xml:space="preserve">
<path fill="#4169E1" opacity="1.000000" stroke="none"
	d="
M7856.000000,628.000000
	C7856.000000,852.710693 7856.000000,1077.421387 7855.116211,1302.721924
	C7848.236816,1303.219238 7842.241211,1303.045288 7836.245117,1303.045288
	C5242.948242,1303.033691 2649.651611,1303.034058 56.355000,1303.031250
	C44.021893,1303.031128 31.688442,1303.033081 19.355923,1302.936035
	C16.465714,1302.913330 13.578654,1302.489990 9.674058,1302.166870
	C9.674058,1298.003052 9.674058,1294.418213 9.674058,1290.833496
	C9.674028,1141.835571 9.666314,992.837708 9.719682,843.839783
	C9.720974,840.234192 10.402767,836.628845 11.556265,832.909912
	C14.305746,832.414124 16.294403,832.139587 18.222410,831.633911
	C80.967842,815.177124 143.670944,798.557495 206.458847,782.264587
	C261.546783,767.969727 316.757629,754.149109 371.857758,739.900818
	C402.109589,732.078003 432.193512,723.606140 462.443298,715.775146
	C525.902344,699.346802 589.443970,683.237244 652.903992,666.812561
	C678.377563,660.219543 703.672485,652.936523 729.142822,646.330566
	C771.983459,635.219482 814.941284,624.559998 857.771362,613.409424
	C899.951233,602.428101 941.996765,590.931152 984.171631,579.930298
	C1013.448425,572.293823 1042.892822,565.299988 1072.176880,557.690063
	C1125.629150,543.799744 1178.996216,529.582397 1232.440186,515.660034
	C1272.698608,505.172546 1313.046997,495.030914 1353.308960,484.556732
	C1399.665771,472.496948 1445.951416,460.163757 1492.305542,448.093872
	C1530.313599,438.197174 1568.400757,428.604675 1606.409668,418.711517
	C1662.436768,404.128601 1718.406738,389.327209 1774.437256,374.757690
	C1807.924316,366.050140 1841.499634,357.682739 1874.996704,349.013031
	C1890.760010,344.933167 1906.432251,340.501099 1922.951172,336.164734
	C1950.684814,328.967682 1977.581055,321.711365 2004.548462,314.729828
	C2046.047607,303.986176 2087.634033,293.577789 2129.112549,282.755920
	C2172.800049,271.357758 2216.387939,259.579865 2260.052002,248.091507
	C2279.372070,243.008194 2298.992920,238.949127 2318.071289,233.101242
	C2335.660889,227.709686 2353.331787,226.845993 2371.356201,228.114456
	C2423.141602,231.758774 2474.933594,235.317993 2526.704590,239.154678
	C2573.419434,242.616653 2620.102295,246.507095 2666.813965,250.012726
	C2712.939697,253.474365 2759.077637,256.777466 2805.221924,259.984222
	C2836.756592,262.175720 2868.330322,263.822144 2899.850830,266.191528
	C2929.955078,268.454498 2959.998047,271.527588 2990.096191,273.883667
	C3011.304932,275.543945 3032.564697,276.541443 3053.793457,277.960785
	C3060.684326,278.421478 3067.535156,279.523529 3074.427979,279.909058
	C3090.695557,280.819031 3106.991455,281.256836 3123.250732,282.282104
	C3150.142578,283.977844 3177.014404,285.985992 3204.459961,288.108459
	C3207.351807,288.352783 3209.678467,288.351135 3212.841797,288.487183
	C3229.083740,289.635010 3244.489014,290.645142 3260.778076,291.842102
	C3288.572754,294.015656 3315.475586,296.114777 3342.395996,297.960083
	C3374.618896,300.168884 3406.866699,302.014648 3439.084229,304.295807
	C3462.313232,305.940582 3485.502197,308.137787 3508.722900,309.910950
	C3535.590576,311.962616 3562.477051,313.762787 3589.346436,315.789337
	C3599.941650,316.588470 3610.499023,317.909973 3621.097900,318.638062
	C3658.954590,321.238586 3696.832764,323.526245 3734.680908,326.241058
	C3767.200684,328.573639 3799.677246,331.502655 3832.196289,333.847473
	C3865.381104,336.240326 3898.602783,338.123108 3931.793213,340.442871
	C3985.298096,344.182465 4038.784180,348.188843 4092.290283,351.908661
	C4133.816895,354.795654 4175.363770,357.389069 4216.896973,360.176025
	C4227.852539,360.911133 4238.792969,361.875122 4249.739258,362.742340
	C4263.335938,363.819458 4276.924316,365.015930 4290.530273,365.962585
	C4313.430664,367.555939 4336.351074,368.861969 4359.245117,370.532867
	C4381.807617,372.179504 4404.336426,374.296600 4426.900879,375.904144
	C4456.472168,378.010834 4486.078125,379.639496 4515.640625,381.852386
	C4526.498535,382.665131 4537.244141,384.897858 4548.096191,385.866150
	C4560.016602,386.929779 4572.005859,387.197845 4583.956055,387.961304
	C4616.826660,390.061401 4649.699707,392.128082 4682.557617,394.413086
	C4729.077148,397.648102 4775.584961,401.062469 4822.096680,404.408661
	C4858.629395,407.036926 4895.158203,409.726044 4931.695312,412.295990
	C4954.938965,413.930969 4978.198730,415.342072 5001.443848,416.961243
	C5014.350586,417.860291 5027.237305,419.041260 5040.141113,419.985565
	C5056.400879,421.175476 5072.678223,422.128204 5088.929688,423.413940
	C5106.448242,424.799866 5123.924805,426.749146 5141.455566,427.920044
	C5168.675293,429.738068 5195.934082,430.958038 5223.158691,432.711548
	C5243.737305,434.036987 5264.285156,435.826355 5284.850586,437.359528
	C5300.760254,438.545593 5316.677734,439.628479 5332.587891,440.804688
	C5352.485352,442.275696 5372.378418,443.802765 5392.274414,445.291626
	C5409.161133,446.555237 5426.054199,447.726379 5442.933594,449.078125
	C5453.460449,449.921173 5463.956543,451.153748 5474.484863,451.979156
	C5490.060547,453.200226 5505.655273,454.181030 5521.237305,455.325775
	C5542.062500,456.855743 5562.885254,458.411469 5583.704590,460.022522
	C5593.975586,460.817322 5604.239746,461.706604 5614.498047,462.654449
	C5622.760254,463.417847 5630.990723,464.605133 5639.265625,465.126068
	C5657.150879,466.251892 5675.056641,467.051605 5692.951660,468.024200
	C5700.590820,468.439362 5708.234375,468.829742 5715.858887,469.447144
	C5733.692871,470.891296 5751.508301,472.565765 5769.346680,473.951874
	C5780.908203,474.850250 5792.496582,475.402893 5804.073242,476.113708
	C5811.043945,476.541748 5818.024902,476.853607 5824.983398,477.431732
	C5842.484863,478.885834 5859.969238,480.559052 5877.475098,481.954987
	C5889.697754,482.929626 5901.944824,483.603760 5914.182129,484.389862
	C5933.076172,485.603607 5951.980957,486.671631 5970.863770,488.037292
	C5989.068359,489.353973 6007.252930,490.964233 6025.445312,492.455994
	C6036.693848,493.378448 6047.929688,494.524139 6059.192871,495.205200
	C6075.473145,496.189697 6091.805176,496.448547 6108.056152,497.747131
	C6125.235840,499.119843 6142.315918,501.743256 6159.496582,503.095642
	C6177.688965,504.527618 6195.972656,504.774231 6214.172363,506.131226
	C6245.885742,508.495850 6277.561523,511.367493 6309.261230,513.926453
	C6331.994629,515.761475 6354.826660,514.915771 6377.541504,518.846313
	C6396.091797,522.055908 6415.173340,522.273560 6434.036133,523.569458
	C6454.250488,524.958252 6474.486328,526.037231 6494.710449,527.288452
	C6509.276367,528.189636 6523.855957,528.943542 6538.398438,530.138672
	C6556.562500,531.631409 6574.673340,533.803528 6592.846680,535.150635
	C6618.633301,537.062073 6644.455566,538.489685 6670.262695,540.121521
	C6677.232422,540.562195 6684.211914,540.883484 6691.171387,541.450989
	C6709.006836,542.905273 6726.822754,544.617249 6744.666992,545.943909
	C6762.549805,547.273376 6780.466797,548.142517 6798.353516,549.427307
	C6823.845703,551.258545 6849.317383,553.381592 6874.810547,555.199829
	C6899.327148,556.948364 6923.859863,558.467651 6948.385742,560.089233
	C6948.717773,560.111206 6949.048828,560.157715 6949.380859,560.184998
	C6969.862305,561.874695 6990.333496,563.698914 7010.827637,565.209656
	C7027.040039,566.404663 7043.295410,567.020630 7059.504883,568.245728
	C7079.000977,569.719238 7098.457031,571.727112 7117.953125,573.200195
	C7134.162109,574.425049 7150.418945,575.024353 7166.628906,576.239014
	C7186.456543,577.724731 7206.248047,579.707642 7226.074707,581.211975
	C7249.860352,583.016663 7273.677246,584.422302 7297.462891,586.228333
	C7317.271973,587.732422 7337.043945,589.718262 7356.853516,591.204956
	C7373.063965,592.421509 7389.321777,593.008423 7405.529297,594.253113
	C7424.362305,595.699463 7443.146973,597.786926 7461.983398,599.171997
	C7479.522461,600.461731 7497.104492,601.151062 7514.663086,602.192139
	C7522.290527,602.644409 7529.918457,603.175110 7537.521973,603.922058
	C7547.415039,604.893921 7557.257812,606.480103 7567.166992,607.151733
	C7585.377441,608.386047 7603.621094,609.128845 7621.848633,610.110657
	C7628.822754,610.486206 7635.802734,610.814880 7642.760254,611.406860
	C7667.856934,613.542053 7692.931641,615.956726 7718.041016,617.922974
	C7737.576172,619.452759 7757.148438,620.515442 7776.709473,621.693726
	C7783.020020,622.073792 7789.373047,621.886230 7795.663574,622.443054
	C7806.847656,623.433044 7817.988770,624.905640 7829.167969,625.962463
	C7838.096680,626.806580 7847.054688,627.332703 7856.000000,628.000000
z"/>
<!--<path fill="#FFFFFF" opacity="1.000000" stroke="none" -->
<!--	d="-->
<!--M10.767168,833.023376 -->
<!--	C10.402767,836.628845 9.720974,840.234192 9.719682,843.839783 -->
<!--	C9.666314,992.837708 9.674028,1141.835571 9.674058,1290.833496 -->
<!--	C9.674058,1294.418213 9.674058,1298.003052 9.674058,1302.166870 -->
<!--	C13.578654,1302.489990 16.465714,1302.913330 19.355923,1302.936035 -->
<!--	C31.688442,1303.033081 44.021893,1303.031128 56.355000,1303.031250 -->
<!--	C2649.651611,1303.034058 5242.948242,1303.033691 7836.245117,1303.045288 -->
<!--	C7842.241211,1303.045288 7848.236816,1303.219238 7855.116211,1303.656006 -->
<!--	C7856.000000,1305.333252 7856.000000,1306.666504 7856.000000,1307.999756 -->
<!--	C5238.132812,1307.999878 2620.265625,1307.999878 2.199293,1307.999878 -->
<!--	C2.199293,872.821716 2.199293,437.643250 2.199293,2.232416 -->
<!--	C2620.000000,2.232416 5238.000000,2.232416 7856.000000,2.232416 -->
<!--	C7856.000000,107.466278 7856.000000,212.795822 7855.154297,319.148315 -->
<!--	C7845.216309,318.255035 7836.158203,316.149658 7827.023438,314.459167 -->
<!--	C7802.493164,309.919434 7777.904785,305.689667 7753.385254,301.092712 -->
<!--	C7718.687500,294.587463 7684.007812,287.982422 7649.362305,281.205383 -->
<!--	C7593.830566,270.342926 7538.349121,259.222839 7482.815430,248.371567 -->
<!--	C7450.781250,242.112198 7418.698730,236.095627 7386.614746,230.096497 -->
<!--	C7339.502930,221.287415 7292.327637,212.811737 7245.258301,203.781448 -->
<!--	C7204.731934,196.006287 7164.328613,187.588089 7123.842773,179.596100 -->
<!--	C7111.432129,177.146210 7098.900879,175.313156 7086.473633,172.940842 -->
<!--	C7051.181641,166.203842 7015.932129,159.241821 6980.632324,152.546265 -->
<!--	C6952.813965,147.269806 6924.906738,142.453842 6897.107910,137.080200 -->
<!--	C6857.932129,129.507507 6818.836914,121.520569 6779.673828,113.881859 -->
<!--	C6756.168945,109.297287 6732.592773,105.079033 6709.062988,100.622993 -->
<!--	C6677.966797,94.734039 6646.878418,88.807289 6615.797852,82.836571 -->
<!--	C6549.137207,70.030846 6482.487793,57.167679 6415.826660,44.365070 -->
<!--	C6376.578125,36.827271 6337.287109,29.506683 6298.070801,21.803825 -->
<!--	C6276.528809,17.572578 6254.900391,13.514333 6233.701660,7.903070 -->
<!--	C6221.442383,4.658109 6209.502930,3.098073 6197.253418,5.546410 -->
<!--	C6173.284180,10.337088 6148.913086,10.091609 6124.716797,12.021021 -->
<!--	C6112.114746,13.025907 6099.506348,13.946728 6086.902832,14.929397 -->
<!--	C6073.971191,15.937644 6061.046875,17.045780 6048.110352,17.979153 -->
<!--	C6035.833984,18.864897 6023.534668,19.444218 6011.264648,20.401430 -->
<!--	C5988.716309,22.160410 5966.195801,24.286020 5943.638672,25.916323 -->
<!--	C5911.084473,28.269188 5878.497559,30.165359 5845.944824,32.533081 -->
<!--	C5805.749023,35.456707 5765.599609,39.069324 5725.382324,41.636639 -->
<!--	C5683.839355,44.288597 5642.459473,48.392586 5601.107422,53.055344 -->
<!--	C5571.318848,56.414333 5541.452637,59.095516 5511.607910,61.942146 -->
<!--	C5493.722656,63.648064 5475.804199,65.001175 5457.916016,66.676758 -->
<!--	C5440.041992,68.350975 5422.187012,70.229172 5404.323730,72.018356 -->
<!--	C5388.442871,73.609039 5372.561035,75.186165 5356.682129,76.795319 -->
<!--	C5339.813965,78.504707 5322.958496,80.338036 5306.081055,81.945961 -->
<!--	C5287.516113,83.714653 5268.923340,85.193062 5250.358887,86.968491 -->
<!--	C5219.521973,89.917694 5188.699219,93.014023 5157.868164,96.027748 -->
<!--	C5132.351562,98.522034 5106.834961,101.017441 5081.312500,103.453247 -->
<!--	C5064.761230,105.032822 5048.192383,106.423851 5031.646484,108.049683 -->
<!--	C5014.444824,109.739883 4997.253906,111.548836 4980.071289,113.422989 -->
<!--	C4966.849609,114.865242 4953.664551,116.657829 4940.432129,117.989471 -->
<!--	C4923.549316,119.688507 4906.627441,120.988213 4889.738281,122.630341 -->
<!--	C4872.531738,124.303345 4855.353516,126.270409 4838.147461,127.947105 -->
<!--	C4821.601074,129.559509 4805.023926,130.857941 4788.479980,132.491196 -->
<!--	C4771.277832,134.189392 4754.111328,136.253922 4736.906250,137.919159 -->
<!--	C4718.012695,139.747833 4699.081055,141.180588 4680.186523,143.004211 -->
<!--	C4643.050781,146.588501 4605.934570,150.377319 4568.799316,153.973694 -->
<!--	C4550.918457,155.705429 4533.005859,157.114685 4515.121094,158.812302 -->
<!--	C4497.912109,160.445816 4480.723633,162.295319 4463.520020,163.990067 -->
<!--	C4446.645508,165.652420 4429.757324,167.182938 4412.885742,168.875839 -->
<!--	C4396.675781,170.502380 4380.490234,172.383011 4364.273438,173.936813 -->
<!--	C4339.077148,176.350952 4313.842773,178.380859 4288.664062,180.956207 -->
<!--	C4268.819336,182.985916 4249.057617,185.815674 4229.215820,187.878113 -->
<!--	C4210.363281,189.837723 4191.445312,191.159363 4172.573730,192.948822 -->
<!--	C4149.027832,195.181503 4125.500977,197.615845 4101.963867,199.944870 -->
<!--	C4071.136230,202.995377 4040.309082,206.050751 4009.477295,209.061096 -->
<!--	C3985.631836,211.389343 3961.783936,213.693176 3937.929688,215.929153 -->
<!--	C3920.716064,217.542618 3903.479736,218.915146 3886.273682,220.600418 -->
<!--	C3869.401367,222.253006 3852.568848,224.311554 3835.693359,225.924103 -->
<!--	C3816.810791,227.728409 3797.884521,229.078629 3779.004150,230.901291 -->
<!--	C3749.162842,233.782120 3719.339111,236.851212 3689.515625,239.915329 -->
<!--	C3653.091553,243.657669 3616.682617,247.547653 3580.253662,251.241211 -->
<!--	C3550.425293,254.265533 3520.584229,257.170868 3490.735596,259.987671 -->
<!--	C3467.194580,262.209290 3443.617188,264.050812 3420.085693,266.364532 -->
<!--	C3396.594482,268.674225 3373.157471,271.529541 3349.666016,273.835785 -->
<!--	C3325.844238,276.174469 3301.979980,278.080688 3278.144775,280.289978 -->
<!--	C3270.249023,281.021851 3262.927002,282.973083 3259.894043,291.655304 -->
<!--	C3244.489014,290.645142 3229.083740,289.635010 3212.351562,288.133606 -->
<!--	C3208.647949,287.715729 3206.271484,287.789093 3203.894775,287.862488 -->
<!--	C3177.014404,285.985992 3150.142578,283.977844 3123.250732,282.282104 -->
<!--	C3106.991455,281.256836 3090.695557,280.819031 3074.427979,279.909058 -->
<!--	C3067.535156,279.523529 3060.684326,278.421478 3053.793457,277.960785 -->
<!--	C3032.564697,276.541443 3011.304932,275.543945 2990.096191,273.883667 -->
<!--	C2959.998047,271.527588 2929.955078,268.454498 2899.850830,266.191528 -->
<!--	C2868.330322,263.822144 2836.756592,262.175720 2805.221924,259.984222 -->
<!--	C2759.077637,256.777466 2712.939697,253.474365 2666.813965,250.012726 -->
<!--	C2620.102295,246.507095 2573.419434,242.616653 2526.704590,239.154678 -->
<!--	C2474.933594,235.317993 2423.141602,231.758774 2371.356201,228.114456 -->
<!--	C2353.331787,226.845993 2335.660889,227.709686 2318.071289,233.101242 -->
<!--	C2298.992920,238.949127 2279.372070,243.008194 2260.052002,248.091507 -->
<!--	C2216.387939,259.579865 2172.800049,271.357758 2129.112549,282.755920 -->
<!--	C2087.634033,293.577789 2046.047607,303.986176 2004.548462,314.729828 -->
<!--	C1977.581055,321.711365 1950.684814,328.967682 1922.046021,336.050049 -->
<!--	C1904.080566,337.128571 1887.834351,338.402191 1871.568970,339.350311 -->
<!--	C1851.622681,340.513000 1831.647949,341.201294 1811.707764,342.451294 -->
<!--	C1761.189575,345.618195 1710.682617,348.965240 1660.173950,352.283020 -->
<!--	C1646.219116,353.199646 1632.279053,354.343140 1618.323486,355.247559 -->
<!--	C1593.080688,356.883484 1567.834351,358.470917 1542.583252,359.974152 -->
<!--	C1527.971313,360.844055 1513.343384,361.445984 1498.729614,362.288483 -->
<!--	C1487.439453,362.939392 1476.155762,363.718597 1464.876953,364.545654 -->
<!--	C1449.951782,365.640015 1435.043945,366.992889 1420.110229,367.945435 -->
<!--	C1405.168945,368.898438 1390.189819,369.275879 1375.254150,370.297485 -->
<!--	C1350.369995,371.999512 1325.522339,374.250092 1300.631592,375.834198 -->
<!--	C1273.049683,377.589569 1245.430054,378.743866 1217.839966,380.380493 -->
<!--	C1202.884155,381.267639 1187.950684,382.553223 1173.016968,383.778992 -->
<!--	C1165.730591,384.377106 1158.481567,385.474396 1151.189697,385.950409 -->
<!--	C1136.913940,386.882355 1122.607422,387.356140 1108.336426,388.346619 -->
<!--	C1083.453979,390.073547 1058.601074,392.234650 1033.713257,393.872070 -->
<!--	C1001.817505,395.970612 969.897461,397.697296 937.991638,399.645538 -->
<!--	C891.122314,402.507416 844.254517,405.394867 797.390015,408.334595 -->
<!--	C783.765137,409.189240 770.158447,410.329956 756.535339,411.215668 -->
<!--	C731.292480,412.856812 706.047119,414.464996 680.795959,415.972107 -->
<!--	C666.182495,416.844360 651.551636,417.422363 636.936157,418.265320 -->
<!--	C626.311340,418.878143 615.696167,419.669373 605.081787,420.450104 -->
<!--	C589.492310,421.596832 573.916931,422.955688 558.317810,423.944122 -->
<!--	C543.377869,424.890808 528.405151,425.318665 513.464905,426.261230 -->
<!--	C485.241455,428.041870 457.035645,430.101349 428.813751,431.907410 -->
<!--	C403.222290,433.545166 377.614288,434.923523 352.022278,436.552979 -->
<!--	C312.474792,439.070984 272.931641,441.659821 233.392609,444.307526 -->
<!--	C209.138885,445.931641 184.897141,447.734070 160.648407,449.433350 -->
<!--	C137.746384,451.038239 114.845558,452.662567 91.938118,454.186920 -->
<!--	C69.342201,455.690491 46.734684,457.021027 24.141645,458.564911 -->
<!--	C19.246717,458.899414 14.391824,459.819672 9.825836,460.429138 -->
<!--	C9.825836,468.687744 9.825834,475.942444 9.825836,483.197113 -->
<!--	C9.825857,594.500549 9.812956,705.804016 9.865879,817.107483 -->
<!--	C9.868402,822.412903 10.453417,827.718079 10.767168,833.023376 -->
<!--z"/>-->
<path fill="#DFF2FF" opacity="1.000000" stroke="none"
	d="
M3260.778076,291.842102
	C3262.927002,282.973083 3270.249023,281.021851 3278.144775,280.289978
	C3301.979980,278.080688 3325.844238,276.174469 3349.666016,273.835785
	C3373.157471,271.529541 3396.594482,268.674225 3420.085693,266.364532
	C3443.617188,264.050812 3467.194580,262.209290 3490.735596,259.987671
	C3520.584229,257.170868 3550.425293,254.265533 3580.253662,251.241211
	C3616.682617,247.547653 3653.091553,243.657669 3689.515625,239.915329
	C3719.339111,236.851212 3749.162842,233.782120 3779.004150,230.901291
	C3797.884521,229.078629 3816.810791,227.728409 3835.693359,225.924103
	C3852.568848,224.311554 3869.401367,222.253006 3886.273682,220.600418
	C3903.479736,218.915146 3920.716064,217.542618 3937.929688,215.929153
	C3961.783936,213.693176 3985.631836,211.389343 4009.477295,209.061096
	C4040.309082,206.050751 4071.136230,202.995377 4101.963867,199.944870
	C4125.500977,197.615845 4149.027832,195.181503 4172.573730,192.948822
	C4191.445312,191.159363 4210.363281,189.837723 4229.215820,187.878113
	C4249.057617,185.815674 4268.819336,182.985916 4288.664062,180.956207
	C4313.842773,178.380859 4339.077148,176.350952 4364.273438,173.936813
	C4380.490234,172.383011 4396.675781,170.502380 4412.885742,168.875839
	C4429.757324,167.182938 4446.645508,165.652420 4463.520020,163.990067
	C4480.723633,162.295319 4497.912109,160.445816 4515.121094,158.812302
	C4533.005859,157.114685 4550.918457,155.705429 4568.799316,153.973694
	C4605.934570,150.377319 4643.050781,146.588501 4680.186523,143.004211
	C4699.081055,141.180588 4718.012695,139.747833 4736.906250,137.919159
	C4754.111328,136.253922 4771.277832,134.189392 4788.479980,132.491196
	C4805.023926,130.857941 4821.601074,129.559509 4838.147461,127.947105
	C4855.353516,126.270409 4872.531738,124.303345 4889.738281,122.630341
	C4906.627441,120.988213 4923.549316,119.688507 4940.432129,117.989471
	C4953.664551,116.657829 4966.849609,114.865242 4980.071289,113.422989
	C4997.253906,111.548836 5014.444824,109.739883 5031.646484,108.049683
	C5048.192383,106.423851 5064.761230,105.032822 5081.312500,103.453247
	C5106.834961,101.017441 5132.351562,98.522034 5157.868164,96.027748
	C5188.699219,93.014023 5219.521973,89.917694 5250.358887,86.968491
	C5268.923340,85.193062 5287.516113,83.714653 5306.081055,81.945961
	C5322.958496,80.338036 5339.813965,78.504707 5356.682129,76.795319
	C5372.561035,75.186165 5388.442871,73.609039 5404.323730,72.018356
	C5422.187012,70.229172 5440.041992,68.350975 5457.916016,66.676758
	C5475.804199,65.001175 5493.722656,63.648064 5511.607910,61.942146
	C5541.452637,59.095516 5571.318848,56.414333 5601.107422,53.055344
	C5642.459473,48.392586 5683.839355,44.288597 5725.382324,41.636639
	C5765.599609,39.069324 5805.749023,35.456707 5845.944824,32.533081
	C5878.497559,30.165359 5911.084473,28.269188 5943.638672,25.916323
	C5966.195801,24.286020 5988.716309,22.160410 6011.264648,20.401430
	C6023.534668,19.444218 6035.833984,18.864897 6048.110352,17.979153
	C6061.046875,17.045780 6073.971191,15.937644 6086.902832,14.929397
	C6099.506348,13.946728 6112.114746,13.025907 6124.716797,12.021021
	C6148.913086,10.091609 6173.284180,10.337088 6197.253418,5.546410
	C6209.502930,3.098073 6221.442383,4.658109 6233.701660,7.903070
	C6254.900391,13.514333 6276.528809,17.572578 6298.070801,21.803825
	C6337.287109,29.506683 6376.578125,36.827271 6415.826660,44.365070
	C6482.487793,57.167679 6549.137207,70.030846 6615.797852,82.836571
	C6646.878418,88.807289 6677.966797,94.734039 6709.062988,100.622993
	C6732.592773,105.079033 6756.168945,109.297287 6779.673828,113.881859
	C6818.836914,121.520569 6857.932129,129.507507 6897.107910,137.080200
	C6924.906738,142.453842 6952.813965,147.269806 6980.632324,152.546265
	C7015.932129,159.241821 7051.181641,166.203842 7086.473633,172.940842
	C7098.900879,175.313156 7111.432129,177.146210 7123.842773,179.596100
	C7164.328613,187.588089 7204.731934,196.006287 7245.258301,203.781448
	C7292.327637,212.811737 7339.502930,221.287415 7386.614746,230.096497
	C7418.698730,236.095627 7450.781250,242.112198 7482.815430,248.371567
	C7538.349121,259.222839 7593.830566,270.342926 7649.362305,281.205383
	C7684.007812,287.982422 7718.687500,294.587463 7753.385254,301.092712
	C7777.904785,305.689667 7802.493164,309.919434 7827.023438,314.459167
	C7836.158203,316.149658 7845.216309,318.255035 7855.154297,320.085632
	C7856.000000,422.041779 7856.000000,524.083557 7856.000000,627.062683
	C7847.054688,627.332703 7838.096680,626.806580 7829.167969,625.962463
	C7817.988770,624.905640 7806.847656,623.433044 7795.663574,622.443054
	C7789.373047,621.886230 7783.020020,622.073792 7776.709473,621.693726
	C7757.148438,620.515442 7737.576172,619.452759 7718.041016,617.922974
	C7692.931641,615.956726 7667.856934,613.542053 7642.760254,611.406860
	C7635.802734,610.814880 7628.822754,610.486206 7621.848633,610.110657
	C7603.621094,609.128845 7585.377441,608.386047 7567.166992,607.151733
	C7557.257812,606.480103 7547.415039,604.893921 7537.521973,603.922058
	C7529.918457,603.175110 7522.290527,602.644409 7514.663086,602.192139
	C7497.104492,601.151062 7479.522461,600.461731 7461.983398,599.171997
	C7443.146973,597.786926 7424.362305,595.699463 7405.529297,594.253113
	C7389.321777,593.008423 7373.063965,592.421509 7356.853516,591.204956
	C7337.043945,589.718262 7317.271973,587.732422 7297.462891,586.228333
	C7273.677246,584.422302 7249.860352,583.016663 7226.074707,581.211975
	C7206.248047,579.707642 7186.456543,577.724731 7166.628906,576.239014
	C7150.418945,575.024353 7134.162109,574.425049 7117.953125,573.200195
	C7098.457031,571.727112 7079.000977,569.719238 7059.504883,568.245728
	C7043.295410,567.020630 7027.040039,566.404663 7010.827637,565.209656
	C6990.333496,563.698914 6969.862305,561.874695 6949.380859,560.184998
	C6949.048828,560.157715 6948.717773,560.111206 6948.385742,560.089233
	C6923.859863,558.467651 6899.327148,556.948364 6874.810547,555.199829
	C6849.317383,553.381592 6823.845703,551.258545 6798.353516,549.427307
	C6780.466797,548.142517 6762.549805,547.273376 6744.666992,545.943909
	C6726.822754,544.617249 6709.006836,542.905273 6691.171387,541.450989
	C6684.211914,540.883484 6677.232422,540.562195 6670.262695,540.121521
	C6644.455566,538.489685 6618.633301,537.062073 6592.846680,535.150635
	C6574.673340,533.803528 6556.562500,531.631409 6538.398438,530.138672
	C6523.855957,528.943542 6509.276367,528.189636 6494.710449,527.288452
	C6474.486328,526.037231 6454.250488,524.958252 6434.036133,523.569458
	C6415.173340,522.273560 6396.091797,522.055908 6377.541504,518.846313
	C6354.826660,514.915771 6331.994629,515.761475 6309.261230,513.926453
	C6277.561523,511.367493 6245.885742,508.495850 6214.172363,506.131226
	C6195.972656,504.774231 6177.688965,504.527618 6159.496582,503.095642
	C6142.315918,501.743256 6125.235840,499.119843 6108.056152,497.747131
	C6091.805176,496.448547 6075.473145,496.189697 6059.192871,495.205200
	C6047.929688,494.524139 6036.693848,493.378448 6025.445312,492.455994
	C6007.252930,490.964233 5989.068359,489.353973 5970.863770,488.037292
	C5951.980957,486.671631 5933.076172,485.603607 5914.182129,484.389862
	C5901.944824,483.603760 5889.697754,482.929626 5877.475098,481.954987
	C5859.969238,480.559052 5842.484863,478.885834 5824.983398,477.431732
	C5818.024902,476.853607 5811.043945,476.541748 5804.073242,476.113708
	C5792.496582,475.402893 5780.908203,474.850250 5769.346680,473.951874
	C5751.508301,472.565765 5733.692871,470.891296 5715.858887,469.447144
	C5708.234375,468.829742 5700.590820,468.439362 5692.951660,468.024200
	C5675.056641,467.051605 5657.150879,466.251892 5639.265625,465.126068
	C5630.990723,464.605133 5622.760254,463.417847 5614.498047,462.654449
	C5604.239746,461.706604 5593.975586,460.817322 5583.704590,460.022522
	C5562.885254,458.411469 5542.062500,456.855743 5521.237305,455.325775
	C5505.655273,454.181030 5490.060547,453.200226 5474.484863,451.979156
	C5463.956543,451.153748 5453.460449,449.921173 5442.933594,449.078125
	C5426.054199,447.726379 5409.161133,446.555237 5392.274414,445.291626
	C5372.378418,443.802765 5352.485352,442.275696 5332.587891,440.804688
	C5316.677734,439.628479 5300.760254,438.545593 5284.850586,437.359528
	C5264.285156,435.826355 5243.737305,434.036987 5223.158691,432.711548
	C5195.934082,430.958038 5168.675293,429.738068 5141.455566,427.920044
	C5123.924805,426.749146 5106.448242,424.799866 5088.929688,423.413940
	C5072.678223,422.128204 5056.400879,421.175476 5040.141113,419.985565
	C5027.237305,419.041260 5014.350586,417.860291 5001.443848,416.961243
	C4978.198730,415.342072 4954.938965,413.930969 4931.695312,412.295990
	C4895.158203,409.726044 4858.629395,407.036926 4822.096680,404.408661
	C4775.584961,401.062469 4729.077148,397.648102 4682.557617,394.413086
	C4649.699707,392.128082 4616.826660,390.061401 4583.956055,387.961304
	C4572.005859,387.197845 4560.016602,386.929779 4548.096191,385.866150
	C4537.244141,384.897858 4526.498535,382.665131 4515.640625,381.852386
	C4486.078125,379.639496 4456.472168,378.010834 4426.900879,375.904144
	C4404.336426,374.296600 4381.807617,372.179504 4359.245117,370.532867
	C4336.351074,368.861969 4313.430664,367.555939 4290.530273,365.962585
	C4276.924316,365.015930 4263.335938,363.819458 4249.739258,362.742340
	C4238.792969,361.875122 4227.852539,360.911133 4216.896973,360.176025
	C4175.363770,357.389069 4133.816895,354.795654 4092.290283,351.908661
	C4038.784180,348.188843 3985.298096,344.182465 3931.793213,340.442871
	C3898.602783,338.123108 3865.381104,336.240326 3832.196289,333.847473
	C3799.677246,331.502655 3767.200684,328.573639 3734.680908,326.241058
	C3696.832764,323.526245 3658.954590,321.238586 3621.097900,318.638062
	C3610.499023,317.909973 3599.941650,316.588470 3589.346436,315.789337
	C3562.477051,313.762787 3535.590576,311.962616 3508.722900,309.910950
	C3485.502197,308.137787 3462.313232,305.940582 3439.084229,304.295807
	C3406.866699,302.014648 3374.618896,300.168884 3342.395996,297.960083
	C3315.475586,296.114777 3288.572754,294.015656 3260.778076,291.842102
z"/>
<path fill="#DFF2FF" opacity="1.000000" stroke="none"
	d="
M11.556266,832.909912
	C10.453417,827.718079 9.868402,822.412903 9.865879,817.107483
	C9.812956,705.804016 9.825857,594.500549 9.825836,483.197113
	C9.825834,475.942444 9.825836,468.687744 9.825836,460.429138
	C14.391824,459.819672 19.246717,458.899414 24.141645,458.564911
	C46.734684,457.021027 69.342201,455.690491 91.938118,454.186920
	C114.845558,452.662567 137.746384,451.038239 160.648407,449.433350
	C184.897141,447.734070 209.138885,445.931641 233.392609,444.307526
	C272.931641,441.659821 312.474792,439.070984 352.022278,436.552979
	C377.614288,434.923523 403.222290,433.545166 428.813751,431.907410
	C457.035645,430.101349 485.241455,428.041870 513.464905,426.261230
	C528.405151,425.318665 543.377869,424.890808 558.317810,423.944122
	C573.916931,422.955688 589.492310,421.596832 605.081787,420.450104
	C615.696167,419.669373 626.311340,418.878143 636.936157,418.265320
	C651.551636,417.422363 666.182495,416.844360 680.795959,415.972107
	C706.047119,414.464996 731.292480,412.856812 756.535339,411.215668
	C770.158447,410.329956 783.765137,409.189240 797.390015,408.334595
	C844.254517,405.394867 891.122314,402.507416 937.991638,399.645538
	C969.897461,397.697296 1001.817505,395.970612 1033.713257,393.872070
	C1058.601074,392.234650 1083.453979,390.073547 1108.336426,388.346619
	C1122.607422,387.356140 1136.913940,386.882355 1151.189697,385.950409
	C1158.481567,385.474396 1165.730591,384.377106 1173.016968,383.778992
	C1187.950684,382.553223 1202.884155,381.267639 1217.839966,380.380493
	C1245.430054,378.743866 1273.049683,377.589569 1300.631592,375.834198
	C1325.522339,374.250092 1350.369995,371.999512 1375.254150,370.297485
	C1390.189819,369.275879 1405.168945,368.898438 1420.110229,367.945435
	C1435.043945,366.992889 1449.951782,365.640015 1464.876953,364.545654
	C1476.155762,363.718597 1487.439453,362.939392 1498.729614,362.288483
	C1513.343384,361.445984 1527.971313,360.844055 1542.583252,359.974152
	C1567.834351,358.470917 1593.080688,356.883484 1618.323486,355.247559
	C1632.279053,354.343140 1646.219116,353.199646 1660.173950,352.283020
	C1710.682617,348.965240 1761.189575,345.618195 1811.707764,342.451294
	C1831.647949,341.201294 1851.622681,340.513000 1871.568970,339.350311
	C1887.834351,338.402191 1904.080566,337.128571 1921.240479,336.113953
	C1906.432251,340.501099 1890.760010,344.933167 1874.996704,349.013031
	C1841.499634,357.682739 1807.924316,366.050140 1774.437256,374.757690
	C1718.406738,389.327209 1662.436768,404.128601 1606.409668,418.711517
	C1568.400757,428.604675 1530.313599,438.197174 1492.305542,448.093872
	C1445.951416,460.163757 1399.665771,472.496948 1353.308960,484.556732
	C1313.046997,495.030914 1272.698608,505.172546 1232.440186,515.660034
	C1178.996216,529.582397 1125.629150,543.799744 1072.176880,557.690063
	C1042.892822,565.299988 1013.448425,572.293823 984.171631,579.930298
	C941.996765,590.931152 899.951233,602.428101 857.771362,613.409424
	C814.941284,624.559998 771.983459,635.219482 729.142822,646.330566
	C703.672485,652.936523 678.377563,660.219543 652.903992,666.812561
	C589.443970,683.237244 525.902344,699.346802 462.443298,715.775146
	C432.193512,723.606140 402.109589,732.078003 371.857758,739.900818
	C316.757629,754.149109 261.546783,767.969727 206.458847,782.264587
	C143.670944,798.557495 80.967842,815.177124 18.222410,831.633911
	C16.294403,832.139587 14.305746,832.414124 11.556266,832.909912
z"/>
<path fill="#FAC28D" opacity="1.000000" stroke="none"
	d="
M3204.459961,288.108459
	C3206.271484,287.789093 3208.647949,287.715729 3211.514648,287.995941
	C3209.678467,288.351135 3207.351807,288.352783 3204.459961,288.108459
z"/>
</svg>
